<?xml version="1.0" encoding="UTF-8"?><svg id="Layer_2" xmlns="http://www.w3.org/2000/svg" viewBox="0 0 1050.29 336.28"><defs><style>.cls-1{fill:none;stroke:#231f20;stroke-miterlimit:10;stroke-width:2px;}.cls-2{fill:#27aae1;}.cls-3{fill:#231f20;}.cls-4{fill:#414042;}</style></defs><g id="Layer_1-2"><path class="cls-3" d="m367.6,126.55h-38.66v33.48h35.81v11.38h-35.81v43.76h-12.93v-100.13h51.58v11.51Z"/><path class="cls-3" d="m439.16,215.18h-52.81v-100.13h12.93v88.69h39.88v11.44Z"/><path class="cls-3" d="m442.91,166.31c0-16.16,4.37-29.02,13.12-38.59,8.75-9.57,20.6-14.35,35.55-14.35,13.92,0,25.12,4.68,33.61,14.03,8.49,9.35,12.73,21.53,12.73,36.52,0,16.25-4.35,29.13-13.06,38.66-8.71,9.52-20.34,14.29-34.91,14.29s-25.62-4.68-34.2-14.03c-8.58-9.35-12.86-21.53-12.86-36.52Zm13.57-1.03c0,12.11,3.09,21.82,9.28,29.12,6.18,7.3,14.25,10.96,24.21,10.96,10.69,0,19.08-3.5,25.18-10.5,6.1-7,9.15-16.8,9.15-29.38s-2.98-22.9-8.95-29.93c-5.97-7.02-14.15-10.54-24.53-10.54s-18.49,3.71-24.82,11.12c-6.33,7.41-9.5,17.13-9.5,29.15Z"/><path class="cls-3" d="m628.5,215.18h-17.71l-37.62-45.51c-1.29-1.59-2.18-2.84-2.65-3.75h-.32v49.26h-12.93v-100.13h12.93v47.12h.32c.73-1.16,1.62-2.39,2.65-3.68l36.33-43.44h15.97l-42.02,48.03,45.06,52.1Z"/><path class="cls-3" d="m654.23,115.05v100.13h-12.93v-100.13h12.93Z"/><path class="cls-2" d="m804.99,267.1h-23.57l-77.49-119.86c-2.19-3.38-3.95-6.73-5.27-10.05h-.6c.53,3.45.8,10.64.8,21.58v108.32h-19.7V113.02h24.97l75.4,117.77c3.58,5.57,5.7,9.12,6.37,10.64h.4c-.66-4.38-1-11.87-1-22.48v-105.94h19.7v154.08Z"/><path class="cls-2" d="m927.64,267.1h-82.86V113.02h79.38v17.71h-59.48v49.34h55.11v17.61h-55.11v51.82h62.96v17.61Z"/><path class="cls-2" d="m1050.29,130.73h-44.46v136.38h-19.99v-136.38h-44.26v-17.71h108.72v17.71Z"/><path class="cls-4" d="m315.71,259.51c.92.81,2.16,1.47,3.71,1.99,1.55.52,3.02.78,4.42.78,4.25,0,6.37-1.51,6.37-4.53,0-.85-.23-1.61-.68-2.29s-1.08-1.28-1.88-1.8c-.79-.52-2.29-1.32-4.48-2.4-3.04-1.51-5.04-2.92-6-4.21-.96-1.3-1.45-2.78-1.45-4.45,0-2.51,1.01-4.51,3.03-5.98,2.02-1.47,4.57-2.21,7.64-2.21s5.22.36,6.63,1.09v4.26c-1.82-1.26-4.13-1.9-6.92-1.9-1.85,0-3.36.39-4.52,1.16s-1.75,1.85-1.75,3.23c0,1.22.4,2.22,1.21,2.99.81.77,2.56,1.82,5.26,3.15,2.97,1.42,5.05,2.84,6.23,4.26,1.19,1.42,1.78,3.02,1.78,4.79,0,2.66-.96,4.7-2.89,6.12-1.93,1.42-4.61,2.13-8.03,2.13-1.2,0-2.6-.17-4.19-.5-1.6-.33-2.76-.75-3.49-1.24v-4.46Z"/><path class="cls-4" d="m368.43,265.19h-16.28v-30.27h15.6v3.48h-11.69v9.69h10.83v3.46h-10.83v10.18h12.37v3.46Z"/><path class="cls-4" d="m406.8,263.94c-2.23,1.17-5.02,1.76-8.38,1.76-4.34,0-7.8-1.38-10.4-4.13-2.59-2.76-3.89-6.4-3.89-10.93,0-4.87,1.46-8.79,4.38-11.76,2.92-2.97,6.62-4.46,11.12-4.46,2.89,0,5.28.41,7.17,1.23v4.08c-2.16-1.2-4.54-1.8-7.13-1.8-3.37,0-6.12,1.12-8.25,3.37-2.12,2.25-3.19,5.28-3.19,9.1s.99,6.5,2.97,8.63,4.57,3.2,7.78,3.2c3,0,5.6-.68,7.82-2.03v3.75Z"/><path class="cls-4" d="m447.22,252.86c0,8.56-3.88,12.84-11.65,12.84s-11.16-4.13-11.16-12.39v-18.39h3.91v18.21c0,6.06,2.54,9.09,7.62,9.09s7.37-2.93,7.37-8.79v-18.51h3.91v17.94Z"/><path class="cls-4" d="m488.69,265.19h-4.61l-5.02-8.4c-1-1.68-1.92-2.82-2.76-3.43-.83-.61-1.83-.91-2.99-.91h-2.81v12.74h-3.91v-30.27h9.22c2.94,0,5.25.71,6.92,2.13,1.67,1.42,2.5,3.41,2.5,5.96,0,4.2-2.24,6.92-6.72,8.17v.1c.83.35,1.55.85,2.16,1.5.61.65,1.39,1.77,2.35,3.34l5.67,9.07Zm-18.19-26.85v10.69h4.61c1.79,0,3.23-.52,4.35-1.56s1.67-2.41,1.67-4.1c0-1.58-.51-2.81-1.52-3.69-1.02-.89-2.5-1.33-4.44-1.33h-4.67Z"/><path class="cls-4" d="m520.93,265.19h-16.28v-30.27h15.6v3.48h-11.69v9.69h10.83v3.46h-10.83v10.18h12.37v3.46Z"/><path class="cls-4" d="m580.64,238.4h-8.74v26.79h-3.93v-26.79h-8.7v-3.48h21.36v3.48Z"/><path class="cls-4" d="m620.36,265.19h-3.91v-13.64h-15.32v13.64h-3.91v-30.27h3.91v13.15h15.32v-13.15h3.91v30.27Z"/><path class="cls-4" d="m656.39,265.19h-16.28v-30.27h15.6v3.48h-11.69v9.69h10.83v3.46h-10.83v10.18h12.37v3.46Z"/><path class="cls-1" d="m368.21,19.12l-27.78-4.18-31.31-13.93-1.1.09-56.48,36.21c-23.87,11.54-47.72,23.07-71.57,34.63-.45.05-.9.11-1.33.16-22.65,11.45-45.29,22.9-67.94,34.35l-21.14,10.2-24.07-10.11,8.74,16.79-50.67-6.3,27.62,11.54-43.27,17.03,65.41-8.52,131.07,45.27,9.78,43.22v.18l8.41,13.05,6.56,25.57v-17.93l13.97,20.49-10.61-27.24-10.68-26.73,12.63-40.55,25.92-23.79.08-.09,76.78-110.05,45.45-7.02-14.47-12.33Zm-27.37-2.32l23.32,3.56-27.43,9.22,4.11-12.78Zm-1.6-.53l-4.21,12.96-22.8-24.94,27.02,11.98Zm-30.38-13.05l25.17,27.52-62.89,44.64L308.86,3.23Zm-2.45.98l-37.63,71.98-15.74-37.72,53.37-34.26Zm-54.88,35.05l15.91,37.9c-28.02-1.76-56.03-3.51-84.06-5.27,22.72-10.87,45.44-21.74,68.16-32.63Zm5.88,66.22l-61.03,11.8-13.56-43.76,74.59,31.96Zm-76.52-32.4l7.41,24.06c-23.93,2.69-47.87,5.39-71.8,8.08,21.47-10.71,42.92-21.42,64.39-32.14Zm-66.34,33.54l74.25-7.71,5.73,18.63-68.94,10.2-1.52-.09-32-10.11,22.47-10.92Zm-45.2,3.46l20.37,8.62,26.35,8.25-39.72-3.28-7-13.59Zm-47.3,31.96l31.65-12.52,16.34,6.22-47.99,6.3Zm31.98-14.21l-17.67-7.36,41.09,5.15v-.09l40.57,3.37-44.29,6.48-19.7-7.55Zm23.32,8.8l48.42-7.11c22.4-3.54,44.8-7.07,67.2-10.61-31.49,8.33-62.99,16.66-94.48,24.99l-21.14-7.27Zm24,8.25l94.54-25.74,1-.18,59.78-11.54-85.53,61.58-69.79-24.13Zm71.8,24.85l84.61-61.06c-13.87,25.96-27.75,51.93-41.62,77.89-3.44-1.85-6.89-3.7-10.33-5.56l-32.66-11.27Zm33.18,13.4l8.91,3.81,4.8,25.74-4.71,10.03-8.99-39.58Zm25.7,57.56c2.77,6.88,5.51,13.74,8.24,20.59-3.74-6.05-7.48-12.09-11.22-18.14-2.34-9.05-4.68-18.11-7.02-27.16,3.34,8.2,6.67,16.43,10,24.71Zm-4.58,2.98v7.29l-3.28-12.96-8.16-12.7,4.71-9.85,6.73,28.22Zm-6.31-34.26l-4.21-22.64,15.16-12.42-10.94,35.05Zm37.88-61.95l-25.83,23.62-14.31,11.71,40.57-73.75-.43,38.42Zm.85-42.87l-73.24-31.42,80.73,5.76-7.5,25.66Zm.31,41.32l1.04-39.46.17-1.23,1.28-4.21c2.02-7.62,4.03-15.22,6.05-22.85,2.61-1.49,5.25-2.99,7.86-4.48l58.21-41.34,1.1,5.15-75.71,108.42Zm76.12-114.46l31.41-10.55,10.94,9.32-41.26,6.39-1.1-5.16Z"/></g></svg>